ply
format ascii 1.0
comment PCL generated
element vertex 527
property float x
property float y
property float z
property float nx
property float ny
property float nz
property float curvature
element face 829
property list uchar int vertex_indices
end_header
1.5934 -4.6928 10.972 0.22629 0.42767 -0.87515 0.057468 
2.9459 -4.5373 11.063 -0.40105 -0.74967 -0.52646 7.5525e-05 
3.1674 -4.6349 11.033 -0.4009 -0.74917 -0.52728 0 
3.3823 -4.7249 10.998 -0.40097 -0.74931 -0.52702 0 
2.653 -4.405 11.098 -0.40101 -0.74954 -0.52667 1.9932e-05 
2.7972 -4.4656 11.074 -0.40099 -0.74954 -0.52669 1.0308e-05 
1.6566 -4.8091 11.129 0.14234 0.55709 -0.81816 0.079391 
3.1909 -4.85 11.321 -0.40114 -0.74934 -0.52686 0 
3.332 -4.8272 11.182 -0.40095 -0.7496 -0.52664 3.245e-05 
1.4967 -4.6708 11.135 0.59276 0.32511 -0.73684 0.077974 
1.6322 -4.7765 11.1 0.12423 0.50763 -0.85257 0.090183 
2.612 -4.5457 11.329 -0.40099 -0.74951 -0.52673 3.5621e-05 
2.8579 -4.6267 11.257 -0.40101 -0.74946 -0.52678 4.9225e-05 
3.1228 -4.7285 11.2 -0.40097 -0.74968 -0.5265 5.3763e-05 
3.3318 -4.7869 11.124 -0.40096 -0.74932 -0.52703 0 
4.7021 -4.5383 11.359 -0.28923 -0.67834 -0.67543 4.6384e-06 
4.9078 -4.5853 11.319 -0.28913 -0.67862 -0.67518 0.00011734 
-4.5066 -4.3459 11.383 0.10977 -0.03856 -0.99321 0.044817 
-4.3478 -4.3192 11.4 0.10962 -0.038514 -0.99323 0.044609 
-4.1866 -4.3468 11.407 0.35406 -0.32256 -0.87784 0.064581 
2.0257 -4.2411 11.342 -0.40098 -0.74942 -0.52686 0 
2.2598 -4.3314 11.292 -0.40101 -0.74945 -0.5268 6.759e-06 
2.5283 -4.4257 11.222 -0.4012 -0.74894 -0.52738 0 
2.7541 -4.4809 11.129 -0.401 -0.74972 -0.52641 0.00011495 
3.8641 -4.2135 11.392 -0.28931 -0.67871 -0.67502 0.00013067 
4.0681 -4.2664 11.358 -0.28933 -0.67865 -0.67507 0.00010149 
4.3572 -4.3705 11.339 -0.28926 -0.67837 -0.67538 0 
4.6238 -4.4495 11.304 -0.28927 -0.67838 -0.67537 9.1292e-05 
4.8468 -4.4846 11.243 -0.28904 -0.67807 -0.67578 0 
-4.5113 -4.0505 11.378 -0.16783 -0.0072813 -0.98579 0.01088 
-4.3459 -4.0553 11.382 0.10462 -0.0019096 -0.99451 0.025237 
-4.1838 -4.0489 11.398 0.37308 -0.027049 -0.9274 0.019508 
1.4285 -3.9565 11.392 -0.40098 -0.7491 -0.52732 0 
1.6752 -4.067 11.361 -0.40094 -0.7494 -0.52692 0 
1.9133 -4.1603 11.313 -0.40107 -0.74968 -0.52643 1.1119e-05 
3.4914 -4.0524 11.39 -0.2892 -0.67909 -0.67469 0.00011623 
3.7533 -4.1448 11.37 -0.28924 -0.6785 -0.67526 9.8554e-05 
3.9095 -4.1858 11.345 -0.28911 -0.6781 -0.67572 0 
-4.5125 -3.7519 11.373 -0.19351 0.0060625 -0.98108 0.012941 
-4.3458 -3.7502 11.385 0.069005 -0.017389 -0.99746 0.028544 
-4.1825 -3.7486 11.398 0.3677 -0.0030441 -0.92994 0.016441 
-4.5039 -3.4469 11.369 -0.23632 -0.0064645 -0.97165 0.017425 
-4.3466 -3.4443 11.38 0.052461 -0.041999 -0.99774 0.032656 
-4.184 -3.4488 11.402 0.3872 -0.020575 -0.92177 0.014996 
-4.5042 -3.1498 11.373 -0.28353 -0.0043992 -0.95895 0.019946 
-4.3477 -3.1494 11.349 0.049553 -0.006817 -0.99875 0.039963 
-4.1838 -3.1487 11.401 0.39983 -0.01852 -0.9164 0.016191 
-4.5113 -2.8406 11.374 -0.33665 0.011598 -0.94156 0.022215 
-4.3496 -2.8501 11.351 0.063966 0.0066855 -0.99793 0.046663 
-4.1802 -2.8478 11.396 0.40286 -0.0042995 -0.91525 0.017056 
-4.5148 -2.5448 11.372 -0.36632 0.0038316 -0.93048 0.025096 
-4.3509 -2.5462 11.351 0.21459 -0.015535 -0.97658 0.017478 
-4.1741 -2.5436 11.394 0.40374 -0.021809 -0.91461 0.01859 
-4.512 -2.2507 11.37 -0.38284 -0.0091134 -0.92377 0.027189 
-4.3399 -2.2504 11.336 0.21608 -0.01758 -0.97622 0.01829 
-4.1665 -2.2452 11.393 0.41066 -0.021973 -0.91152 0.019113 
-4.5145 -1.9545 11.37 -0.39227 -0.00011784 -0.91985 0.028679 
-4.3393 -1.9493 11.332 0.21267 -0.0011614 -0.97712 0.021082 
-4.1575 -1.949 11.393 0.41856 -0.0088093 -0.90815 0.020502 
-4.5235 -1.6373 11.376 -0.41183 0.013529 -0.91116 0.030522 
-4.3378 -1.6477 11.33 0.21157 -0.0038138 -0.97735 0.023774 
-4.1499 -1.6472 11.392 0.40624 -0.0151 -0.91364 0.023093 
-4.5219 -1.3507 11.375 -0.42035 0.011555 -0.90729 0.029476 
-4.3366 -1.3529 11.325 0.19997 0.010079 -0.97975 0.023494 
-4.1427 -1.3397 11.389 0.40312 -0.00082856 -0.91515 0.021489 
-4.5121 -1.0642 11.387 -0.15005 0.18255 -0.97168 0.066051 
-4.3428 -1.0533 11.333 -0.034884 0.015138 -0.99928 0.091857 
-4.1546 -1.0547 11.397 0.10839 0.15322 -0.98223 0.060377 
2.6514 -4.8179 11.687 -0.40104 -0.74944 -0.52679 2.6624e-06 
2.8812 -4.8735 11.591 -0.40103 -0.74944 -0.5268 0 
3.0908 -4.9414 11.528 -0.4009 -0.74963 -0.52662 3.7304e-05 
4.7026 -4.8398 11.662 -0.28929 -0.67835 -0.67539 0 
4.9081 -4.8804 11.615 -0.28914 -0.6785 -0.67531 2.8564e-05 
2.0776 -4.5138 11.691 -0.42081 -0.74475 -0.51794 0.00053842 
2.2871 -4.5666 11.606 -0.40105 -0.74959 -0.52656 7.7069e-05 
2.547 -4.6598 11.541 -0.40093 -0.74935 -0.527 0 
2.7981 -4.7469 11.474 -0.40094 -0.74956 -0.52669 3.2644e-05 
3.8706 -4.514 11.691 -0.28925 -0.67795 -0.67581 0 
4.082 -4.5555 11.642 -0.28935 -0.67842 -0.6753 5.9896e-05 
4.3631 -4.6143 11.581 -0.28909 -0.67875 -0.67507 0.00010186 
4.6375 -4.6745 11.524 -0.28905 -0.67865 -0.67519 5.7675e-05 
4.8903 -4.7288 11.47 -0.2891 -0.67852 -0.67531 6.4552e-05 
-4.638 -4.3509 11.461 0.0026767 -0.0012682 -1 0.033251 
-4.1073 -4.3378 11.542 0.59282 -0.058527 -0.80321 0.064976 
1.6969 -4.2607 11.62 -0.40161 -0.75693 -0.51553 0.00034826 
1.9516 -4.3476 11.55 -0.40103 -0.74931 -0.52698 0 
2.2097 -4.4383 11.483 -0.40102 -0.74951 -0.52671 3.5965e-05 
2.4183 -4.4971 11.407 -0.4009 -0.74967 -0.52656 4.5293e-05 
3.2365 -4.2265 11.674 -0.28922 -0.67855 -0.67522 3.3588e-05 
3.4705 -4.2751 11.622 -0.28924 -0.67855 -0.67521 0.00011095 
3.7586 -4.3373 11.562 -0.28929 -0.67849 -0.67525 3.6253e-05 
4.0336 -4.395 11.502 -0.28932 -0.6781 -0.67563 0 
4.3053 -4.4532 11.444 -0.28928 -0.67831 -0.67543 0 
-4.6468 -4.0502 11.463 -0.16758 -0.007271 -0.98583 0.010494 
-4.0847 -4.05 11.529 0.83165 -0.033388 -0.55429 0.018797 
1.1083 -3.9511 11.628 -0.39707 -0.76821 -0.50219 0.00053781 
1.3587 -4.0346 11.556 -0.40102 -0.74946 -0.52678 0 
1.6152 -4.1322 11.5 -0.39974 -0.76261 -0.50856 0.00025289 
1.8229 -4.1847 11.416 -0.40094 -0.7494 -0.52692 0 
2.6012 -3.9406 11.659 -0.2893 -0.6787 -0.67503 9.3496e-05 
2.8675 -3.9967 11.601 -0.28922 -0.67842 -0.67535 0 
3.1466 -4.0596 11.545 -0.28919 -0.67791 -0.67588 0 
3.4308 -4.1175 11.481 -0.28931 -0.6785 -0.67523 5.3195e-05 
3.6722 -4.1707 11.431 -0.28924 -0.67853 -0.67523 2.6907e-05 
-4.6467 -3.7492 11.473 -0.19342 0.0060536 -0.9811 0.012757 
-4.0805 -3.749 11.527 0.8226 -0.01194 -0.5685 0.020892 
0.56293 -3.6651 11.647 -0.42772 -0.79056 -0.43826 0.001385 
0.7662 -3.7614 11.621 0.26873 0.95028 0.15733 0.12269 
1.0195 -3.8476 11.548 -0.40458 -0.74922 -0.52439 1.0341e-05 
1.2283 -3.8844 11.442 -0.49948 0.00057756 -0.86633 0.16 
1.771 -3.618 11.688 -0.27171 -0.68052 -0.68049 0 
1.9764 -3.657 11.641 -0.28156 -0.67985 -0.67715 7.6672e-05 
2.2548 -3.741 11.607 -0.28889 -0.67849 -0.67542 8.9973e-05 
2.5364 -3.8173 11.563 -0.28928 -0.67821 -0.67553 0 
2.8071 -3.8609 11.491 -0.28928 -0.67865 -0.6751 5.1625e-05 
3.002 -3.8892 11.435 -0.28933 -0.67873 -0.67499 0.00010597 
-4.648 -3.4489 11.483 -0.2363 -0.006314 -0.97166 0.017227 
-4.0805 -3.4506 11.523 0.80804 -0.011653 -0.58901 0.019812 
1.4876 -3.5138 11.696 -0.26075 -0.68033 -0.68495 0 
1.6691 -3.5276 11.638 -0.2692 -0.67789 -0.68411 0.00016677 
1.9089 -3.566 11.579 -0.27997 -0.67877 -0.67888 0 
-4.6465 -3.1477 11.496 -0.28369 -0.0044598 -0.95891 0.019919 
-4.0763 -3.1488 11.521 0.8024 -0.018485 -0.59651 0.015061 
-4.6523 -2.8554 11.506 -0.33642 0.011619 -0.94164 0.022059 
-4.069 -2.8502 11.529 0.7888 -0.022913 -0.61422 0.01506 
-4.671 -2.5488 11.532 -0.3665 0.0037905 -0.93041 0.025248 
-4.0655 -2.5524 11.525 0.78126 -0.026154 -0.62366 0.016206 
-4.6746 -2.2482 11.537 -0.38271 -0.0091055 -0.92382 0.027018 
-4.0464 -2.2491 11.526 0.78336 -0.024057 -0.6211 0.013664 
-4.6692 -1.9449 11.53 -0.39188 -0.00011525 -0.92002 0.028629 
-4.0396 -1.9489 11.531 0.77667 -0.028857 -0.62924 0.015493 
-4.6809 -1.6638 11.546 -0.41197 0.013558 -0.9111 0.030459 
-4.0223 -1.6476 11.539 0.69926 -0.037594 -0.71387 0.018447 
-4.7016 -1.3522 11.575 -0.42033 0.011559 -0.9073 0.029479 
-4.002 -1.3533 11.535 0.61355 -0.054874 -0.78774 0.01351 
-4.6898 -1.0526 11.553 -0.34461 0.032308 -0.93819 0.03588 
-3.992 -1.0502 11.539 0.32701 0.0095414 -0.94497 0.026462 
2.9124 -5.1376 11.943 -0.40084 -0.74982 -0.5264 7.4622e-05 
3.0105 -5.1135 11.834 -0.40098 -0.74949 -0.52677 0 
4.7003 -5.1375 11.962 -0.2891 -0.67865 -0.67517 5.18e-05 
4.8749 -5.1241 11.874 -0.28928 -0.67842 -0.67533 1.8523e-05 
2.333 -4.8325 11.95 -0.40103 -0.74945 -0.52679 1.1292e-05 
2.57 -4.9047 11.872 -0.40113 -0.74965 -0.52643 6.473e-05 
2.8292 -5.0068 11.82 -0.40108 -0.7494 -0.52681 0 
3.038 -5.0664 11.746 -0.40098 -0.74958 -0.52664 6.5128e-05 
3.8815 -4.8113 11.985 -0.28928 -0.67848 -0.67526 3.39e-05 
4.0853 -4.857 11.944 -0.28923 -0.67805 -0.67571 0 
4.3655 -4.9159 11.883 -0.28909 -0.67789 -0.67594 0 
4.6389 -4.975 11.825 -0.28937 -0.67797 -0.67574 0 
4.8926 -5.0275 11.769 -0.28945 -0.67837 -0.6753 4.545e-06 
1.7571 -4.505 11.975 -0.40753 -0.86734 -0.28572 0.17371 
1.9725 -4.5902 11.879 -0.43136 -0.73971 -0.51649 0.0005521 
2.2328 -4.6915 11.825 -0.40103 -0.74948 -0.52674 0 
2.4702 -4.7675 11.753 -0.40104 -0.74941 -0.52683 0 
3.2344 -4.527 11.977 -0.28922 -0.67826 -0.67551 0 
3.4755 -4.5753 11.922 -0.28926 -0.67861 -0.67514 9.3055e-05 
3.7597 -4.6359 11.861 -0.28929 -0.67855 -0.67519 4.5066e-05 
4.0348 -4.6949 11.803 -0.28929 -0.67839 -0.67535 3.8604e-05 
4.3077 -4.7546 11.746 -0.28929 -0.67822 -0.67552 0 
-4.0206 -4.3682 11.745 0.6873 -0.034549 -0.72555 0.046639 
1.1921 -4.1989 11.979 -0.91782 -0.15246 -0.36656 0.21599 
1.3847 -4.2812 11.887 -0.34632 -0.83746 -0.42276 0.011024 
1.6506 -4.3639 11.842 -0.47068 -0.76641 -0.43713 0.015308 
1.8777 -4.4558 11.76 -0.42683 -0.75326 -0.50042 0.00048605 
2.6044 -4.243 11.961 -0.28919 -0.67854 -0.67525 1.3402e-05 
2.8668 -4.2967 11.903 -0.2893 -0.67868 -0.67505 6.5487e-05 
3.1472 -4.3556 11.842 -0.28928 -0.67803 -0.67571 0 
3.4314 -4.4179 11.783 -0.28929 -0.6783 -0.67544 0 
3.6703 -4.4701 11.733 -0.28922 -0.67851 -0.67526 3.6891e-05 
-4.0143 -4.0474 11.745 0.83182 -0.033394 -0.55404 0.018762 
0.78843 -3.968 11.903 0.3637 0.92985 0.05567 0.093873 
1.0424 -4.0661 11.843 0.45947 0.87333 0.16182 0.099118 
1.2902 -4.1503 11.773 -0.55973 -0.77184 -0.3016 0.11804 
1.7516 -3.9118 11.988 -0.25383 -0.66757 -0.69995 0.00035384 
1.9836 -3.9579 11.94 -0.26599 -0.67174 -0.69139 0.00049113 
2.2643 -4.0175 11.88 -0.28821 -0.67819 -0.67601 1.6999e-05 
2.5389 -4.0757 11.821 -0.28929 -0.67813 -0.67561 0 
2.826 -4.1379 11.761 -0.28933 -0.67795 -0.67577 0 
3.0436 -4.1849 11.715 -0.28928 -0.67843 -0.67532 1.0903e-05 
-4.0104 -3.7464 11.731 0.82255 -0.011883 -0.56857 0.020865 
0.23925 -3.6651 11.95 -0.42205 -0.78604 -0.45168 0.00076157 
0.46446 -3.7483 11.864 -0.42925 -0.79198 -0.43418 0.0014129 
0.70934 -3.841 11.781 -0.43728 -0.77954 -0.44844 0.0016909 
1.1513 -3.6592 11.96 -0.71879 0.60714 -0.3387 0.077584 
1.3686 -3.6888 11.911 -0.24566 -0.66838 -0.70208 0.00016727 
1.6558 -3.7401 11.855 -0.26505 -0.6789 -0.68472 0.00011857 
1.9331 -3.7994 11.802 -0.28318 -0.67789 -0.67843 0 
2.2067 -3.8564 11.743 -0.28886 -0.67863 -0.6753 5.2158e-05 
-4.0015 -3.4508 11.734 0.80823 -0.011652 -0.58876 0.019916 
1.4078 -3.564 11.774 -0.25458 -0.6751 -0.69241 0.0001042 
1.561 -3.5736 11.727 -0.26909 -0.67904 -0.68301 0.00030257 
-3.9959 -3.1654 11.723 0.8024 -0.018428 -0.5965 0.015063 
-3.9869 -2.8553 11.723 0.78865 -0.022837 -0.61442 0.014942 
-3.982 -2.5562 11.709 0.7813 -0.026214 -0.62361 0.016233 
-3.9686 -2.2309 11.721 0.85803 -0.02273 -0.5131 0.0017608 
-3.9624 -1.9442 11.713 0.77669 -0.028859 -0.62922 0.015539 
-3.9592 -1.7315 11.703 0.74093 -0.083289 -0.6664 0.011481 
2.5949 -5.1598 12.216 -0.40103 -0.74946 -0.52677 0 
2.7921 -5.2046 12.13 -0.40101 -0.74951 -0.52671 0 
3.879 -5.1092 12.285 -0.28924 -0.67867 -0.67509 4.9639e-05 
4.0816 -5.1565 12.246 -0.28931 -0.6787 -0.67503 0.00014819 
4.354 -5.1975 12.171 -0.28932 -0.67836 -0.67537 1.0031e-05 
4.583 -5.1876 12.063 -0.28941 -0.67815 -0.67554 0 
2.0124 -4.8529 12.223 -0.52665 -0.67546 -0.51612 0.12984 
2.2571 -4.937 12.156 -0.40102 -0.7495 -0.52672 4.1808e-06 
2.5107 -5.0317 12.098 -0.40103 -0.74937 -0.52689 0 
2.7117 -5.0871 12.024 -0.40117 -0.74939 -0.52676 3.5209e-05 
3.2382 -4.8246 12.274 -0.28927 -0.67806 -0.67569 0 
3.4725 -4.8753 12.224 -0.28925 -0.67848 -0.67528 2.12e-05 
3.7572 -4.9348 12.162 -0.28935 -0.67847 -0.67525 0 
4.0345 -4.9948 12.104 -0.28921 -0.67843 -0.67534 2.4924e-05 
4.3048 -5.0524 12.046 -0.2893 -0.67843 -0.67531 6.0295e-05 
1.4713 -4.5208 12.29 -0.43798 -0.16669 -0.8834 0.14531 
1.6715 -4.6065 12.172 0.39144 0.89511 0.2134 0.22303 
1.9191 -4.7236 12.11 -0.42403 -0.72944 -0.53676 0.00060299 
2.1451 -4.7826 12.022 -0.4011 -0.74938 -0.52683 0 
2.6074 -4.5395 12.258 -0.28928 -0.67841 -0.67533 0 
2.8672 -4.5948 12.202 -0.28933 -0.67859 -0.67514 8.404e-05 
3.1462 -4.6544 12.142 -0.28926 -0.67852 -0.67524 1.6145e-05 
3.4304 -4.7152 12.082 -0.28927 -0.67822 -0.67553 0 
3.6751 -4.7681 12.03 -0.28929 -0.67837 -0.67537 0 
0.85523 -4.2108 12.317 -0.3833 -0.40249 -0.83131 0.055571 
1.1013 -4.2976 12.197 -0.13196 -0.23697 -0.96251 0.18149 
1.3298 -4.3911 12.134 0.64598 0.55936 -0.51945 0.21571 
1.6036 -4.3586 12.128 -0.87874 0.039548 -0.47566 0.17249 
1.978 -4.2601 12.243 -0.094583 -0.70173 -0.70614 0.039582 
2.262 -4.3144 12.18 -0.28599 -0.67886 -0.67628 2.5354e-05 
2.5352 -4.3755 12.124 -0.28918 -0.6784 -0.67539 2.0527e-05 
2.8199 -4.4355 12.062 -0.28921 -0.67848 -0.67529 4.6273e-05 
3.0401 -4.4816 12.014 -0.28932 -0.67852 -0.67521 3.6957e-05 
0.293 -3.8924 12.284 -0.13999 -0.84128 -0.52216 0.027079 
0.498 -3.9328 12.188 -0.014144 -0.90599 -0.42307 0.073398 
0.76053 -4.0163 12.108 0.32562 0.94463 0.040626 0.15721 
1.0546 -4 12.202 -0.23355 -0.02308 -0.97207 0.10802 
1.3626 -4.0003 12.201 -0.038832 -0.65111 -0.75799 0.11089 
1.6465 -4.0544 12.137 -0.32385 -0.5046 -0.80032 0.052791 
1.935 -4.0977 12.1 -0.26055 -0.68016 -0.68519 0.00036017 
2.2053 -4.1542 12.043 -0.28721 -0.67802 -0.67661 0.00017766 
-0.060802 -3.6733 12.246 -0.4491 -0.74882 -0.48743 0.00035818 
0.16066 -3.7507 12.154 -0.41738 -0.77312 -0.47757 0.0011185 
0.40107 -3.8177 12.095 -0.27341 -0.89876 -0.34274 0.032258 
0.82046 -3.8139 12.249 0.031381 0.98428 -0.17378 0.11183 
1.0487 -3.7975 12.121 0.088137 -0.74277 -0.66372 0.113 
1.3248 -3.8366 12.06 -0.15129 -0.41282 -0.89816 0.086988 
1.5723 -3.8753 12.021 -0.25508 -0.65942 -0.70718 0.00045756 
2.6384 -5.4196 12.553 -0.40107 -0.74939 -0.52684 0 
4.033 -5.4113 12.523 -0.2893 -0.67803 -0.67571 0 
2.0491 -5.1216 12.577 -0.40108 -0.74943 -0.52678 0 
2.2789 -5.1797 12.485 -0.40103 -0.74957 -0.52662 4.3929e-05 
2.537 -5.2814 12.433 -0.40099 -0.74937 -0.52693 0 
2.7297 -5.3368 12.365 -0.40118 -0.74933 -0.52683 4.7067e-05 
3.5002 -5.1436 12.482 -0.28932 -0.67858 -0.67514 4.5504e-05 
3.7646 -5.2065 12.432 -0.28927 -0.67815 -0.6756 0 
4.0358 -5.2925 12.402 -0.28941 -0.67817 -0.67552 0 
4.2505 -5.319 12.337 -0.28916 -0.67884 -0.67495 0.00013482 
1.4644 -4.8131 12.583 -0.41794 -0.71458 -0.56098 0.0030167 
1.6853 -4.8705 12.497 -0.40374 -0.73824 -0.54037 0.00036405 
1.9402 -4.9666 12.44 -0.40097 -0.74939 -0.52691 0 
2.1855 -5.0466 12.367 -0.40106 -0.74938 -0.52686 0 
2.6843 -4.816 12.503 0.037362 0.30802 -0.95064 0.13164 
2.8842 -4.8573 12.458 -0.28929 -0.67785 -0.6759 0 
3.157 -4.933 12.418 -0.28924 -0.67807 -0.67569 0 
3.4295 -5.0155 12.384 -0.28914 -0.67781 -0.676 0 
3.6828 -5.0689 12.329 -0.28933 -0.67818 -0.67555 0 
1.0986 -4.5611 12.51 -0.38819 -0.73291 -0.55871 0.0026323 
1.3496 -4.6565 12.449 -0.38188 -0.72323 -0.57541 0.002704 
1.599 -4.7414 12.379 -0.50619 -0.547 -0.66676 0.070804 
2.0471 -4.5208 12.478 -0.031201 -0.027888 -0.99912 0.14336 
2.2756 -4.5748 12.435 -0.2247 0.14064 -0.96423 0.12077 
2.5514 -4.6605 12.403 0.023403 -0.37687 -0.92597 0.1238 
2.8233 -4.7362 12.363 -0.28933 -0.67848 -0.67525 8.9868e-05 
3.0387 -4.7859 12.321 -0.28927 -0.67848 -0.67527 0 
0.53505 -4.2323 12.533 -0.42197 -0.65482 -0.62702 0.0080896 
0.76119 -4.327 12.464 -0.44587 -0.62425 -0.64149 0.012953 
1.0145 -4.4325 12.392 -0.33898 -0.56098 -0.75524 0.07169 
1.4597 -4.2477 12.322 0.084885 -0.061269 -0.99451 0.13488 
1.6605 -4.3146 12.375 -0.025904 0.021022 -0.99944 0.11845 
1.9398 -4.3926 12.391 0.14359 -0.55475 -0.81953 0.08656 
2.2059 -4.4549 12.345 -0.28607 -0.67875 -0.67636 0 
-0.02362 -3.916 12.577 -0.4603 -0.73576 -0.49677 0 
0.1759 -3.9802 12.488 -0.4264 -0.7485 -0.50787 0.00068967 
0.43417 -4.0699 12.444 -0.13861 -0.72236 -0.67749 0.025271 
0.7872 -3.9619 12.276 -0.12601 -0.25431 -0.95888 0.084758 
1.0517 -4.0419 12.251 0.020095 -0.2197 -0.97536 0.064324 
1.3342 -4.1406 12.349 0.0998 -0.095005 -0.99046 0.082466 
1.5388 -4.2087 12.293 -0.23821 -0.29811 -0.92433 0.14801 
-0.36675 -3.6713 12.533 -0.46843 -0.73193 -0.49483 0 
-0.14534 -3.7575 12.455 -0.4643 -0.73456 -0.49482 0 
0.08648 -3.8492 12.375 -0.41895 -0.7597 -0.49733 0.00059768 
0.60131 -3.9245 12.301 -0.14486 -0.61751 -0.77311 0.10972 
0.69447 -3.8624 12.324 -0.14631 -0.62089 -0.77012 0.10402 
2.3191 -5.4425 12.828 -0.40108 -0.74938 -0.52685 0 
2.497 -5.4776 12.743 -0.40127 -0.74936 -0.52673 0.00010569 
1.7418 -5.1443 12.844 -0.40473 -0.74863 -0.52511 2.2075e-05 
1.9657 -5.2098 12.766 -0.40106 -0.74965 -0.52648 0.00010432 
2.2196 -5.3125 12.719 -0.40099 -0.7495 -0.52675 0 
2.4427 -5.3717 12.633 -0.40096 -0.74964 -0.52657 6.1509e-05 
1.1677 -4.833 12.855 -0.43615 -0.74536 -0.50418 7.1697e-05 
1.3754 -4.8981 12.775 -0.41624 -0.74653 -0.51907 8.092e-05 
1.6305 -5.0013 12.725 -0.406 -0.74929 -0.5232 0 
1.8587 -5.0643 12.641 -0.40148 -0.74949 -0.52638 0 
0.79648 -4.5689 12.798 -0.44339 -0.74135 -0.5038 0.00016582 
1.0413 -4.6785 12.737 -0.44174 -0.7424 -0.5037 0.00016656 
1.2656 -4.7599 12.664 -0.42351 -0.74641 -0.51334 0.00018568 
0.20832 -4.2474 12.838 -0.40666 -0.70719 -0.57837 0.0012418 
0.45889 -4.3352 12.759 -0.42653 -0.71359 -0.55576 0.00095007 
0.6974 -4.438 12.693 -0.45021 -0.73913 -0.501 9.6291e-05 
-0.32716 -3.9111 12.85 -0.47773 -0.70303 -0.5268 0.0010061 
-0.10659 -4.0198 12.799 -0.46343 -0.68387 -0.56352 0.0018019 
0.11484 -4.1121 12.74 -0.42929 -0.7076 -0.56126 0.00081711 
0.34368 -4.1774 12.629 -0.43869 -0.72448 -0.53168 0.00048449 
-0.67348 -3.6722 12.825 -0.47643 -0.72545 -0.49673 0.00020378 
-0.44831 -3.7638 12.751 -0.47291 -0.72302 -0.50358 9.0398e-05 
-0.22259 -3.8563 12.674 -0.46788 -0.71163 -0.52409 0.0012817 
2.3213 -5.7022 13.196 -0.40111 -0.74941 -0.52678 0 
1.7955 -5.4103 13.181 -0.40464 -0.74902 -0.52463 0 
1.9947 -5.4646 13.107 -0.40256 -0.75003 -0.52478 6.6187e-05 
2.2468 -5.5533 13.041 -0.40124 -0.74925 -0.52692 0 
2.4301 -5.5971 12.964 -0.40109 -0.74937 -0.52685 0 
1.405 -5.1527 13.12 -0.42653 -0.74528 -0.51247 8.1135e-06 
1.6524 -5.2419 13.051 -0.41028 -0.74785 -0.52192 1.3137e-05 
1.9069 -5.3361 12.991 -0.40136 -0.74909 -0.52704 0 
2.1103 -5.3981 12.924 -0.40111 -0.74941 -0.52678 3.3538e-05 
0.84424 -4.8372 13.151 -0.42706 -0.72748 -0.53702 0.0005647 
1.0653 -4.9112 13.065 -0.44566 -0.73971 -0.5042 0 
1.3167 -5.0229 13.006 -0.42574 -0.74711 -0.51047 9.3145e-05 
1.5267 -5.0796 12.917 -0.41142 -0.74739 -0.52168 0.00010839 
0.20473 -4.5344 13.159 -0.30818 -0.67994 -0.66536 0.0010958 
0.46246 -4.5944 13.105 -0.33427 -0.71387 -0.61536 0.0010578 
0.73495 -4.6899 13.032 -0.40972 -0.74176 -0.53097 0.0008341 
0.9523 -4.7676 12.953 -0.43751 -0.74183 -0.5082 0.0001458 
-0.348 -4.2433 13.205 -0.51298 -0.51111 -0.68965 0.0036423 
-0.12649 -4.3016 13.105 -0.40234 -0.62497 -0.66898 0.0037356 
0.13547 -4.3742 13.021 -0.37737 -0.68695 -0.62104 0.0012199 
0.38319 -4.4543 12.981 -0.39246 -0.72433 -0.56685 0.0010789 
-0.63016 -3.9245 13.166 -0.53814 -0.67703 -0.50203 0.0015804 
-0.42224 -4.0089 13.061 -0.53008 -0.64576 -0.54955 0.0018393 
-0.20652 -4.1339 12.985 -0.47594 -0.62538 -0.61837 0.0025421 
-0.9813 -3.6761 13.123 -0.46223 -0.74094 -0.48719 0 
-0.75127 -3.7706 13.049 -0.47554 -0.7296 -0.49147 0.00022874 
-0.53271 -3.8556 12.968 -0.50185 -0.69482 -0.51515 0.00074132 
2.0566 -5.7393 13.45 -0.40386 -0.74932 -0.5248 0 
2.1999 -5.7565 13.366 -0.40188 -0.7494 -0.5262 2.9306e-05 
1.4624 -5.4223 13.469 -0.41587 -0.74082 -0.52748 0.00010975 
1.6788 -5.4848 13.38 -0.41657 -0.74662 -0.51867 2.1489e-05 
1.9331 -5.5892 13.331 -0.40384 -0.74917 -0.52503 0.00013951 
2.1776 -5.6645 13.252 -0.4019 -0.74896 -0.52682 0 
0.84982 -5.1195 13.492 -0.30331 -0.71098 -0.63444 0.00071531 
1.0771 -5.1555 13.406 -0.3574 -0.72745 -0.58573 0.0013037 
1.342 -5.2655 13.344 -0.41651 -0.73943 -0.52893 0.00051576 
1.5725 -5.3505 13.272 -0.41476 -0.74798 -0.51817 5.657e-05 
0.18593 -4.8343 13.463 -0.25382 -0.6756 -0.6922 8.1982e-05 
0.46428 -4.8861 13.413 -0.26761 -0.6893 -0.67324 0.00018371 
0.74462 -4.9577 13.365 -0.31791 -0.70136 -0.63798 0.00065122 
0.9978 -5.0353 13.302 -0.39463 -0.72959 -0.55854 0.0013455 
-0.67513 -4.5289 13.52 0.05094 0.10156 -0.99352 0.10575 
-0.41123 -4.55 13.456 -0.37644 -0.52124 -0.7659 0.045485 
-0.13052 -4.6225 13.38 -0.30055 -0.62043 -0.72439 0.0010782 
0.13977 -4.6706 13.319 -0.26176 -0.6826 -0.6823 0.00018123 
0.42585 -4.731 13.272 -0.30518 -0.70028 -0.64535 0.0010785 
0.64144 -4.7849 13.222 -0.3717 -0.7154 -0.59164 0.0014184 
-0.93624 -4.438 13.478 0.0080633 -0.021453 -0.99974 0.12392 
-0.7129 -4.43 13.456 -0.24114 0.25942 -0.93517 0.1551 
-0.43292 -4.3787 13.333 -0.59214 -0.3232 -0.73818 0.060048 
-0.22698 -4.4151 13.244 -0.4543 -0.54238 -0.70671 0.0056958 
-0.92849 -3.9262 13.454 -0.49455 -0.71084 -0.50013 0.0015344 
-0.72577 -3.9949 13.366 -0.51081 -0.69372 -0.50778 0.0016194 
-0.51737 -4.1403 13.298 -0.59943 -0.49008 -0.63286 0.043215 
-0.33202 -4.2103 13.171 -0.53701 -0.56149 -0.62956 0.0052788 
-1.2905 -3.6761 13.416 -0.46138 -0.74171 -0.48682 5.0235e-05 
-1.0584 -3.7739 13.345 -0.46132 -0.74175 -0.48682 1.7224e-05 
-0.84242 -3.8554 13.264 -0.49349 -0.70715 -0.50636 0.0010163 
1.7125 -5.7449 13.727 -0.38808 -0.74041 -0.54881 0.00026986 
1.9342 -5.8154 13.653 -0.41002 -0.74259 -0.52957 6.9674e-05 
2.1265 -5.856 13.563 -0.4056 -0.74583 -0.52842 6.2957e-05 
0.85806 -5.4098 13.786 -0.25681 -0.68412 -0.68266 2.4601e-05 
1.0822 -5.4564 13.746 -0.2849 -0.69275 -0.66252 0.00057199 
1.3469 -5.5163 13.68 -0.34451 -0.72535 -0.59597 0.0011499 
1.6248 -5.6175 13.617 -0.39656 -0.74054 -0.54254 0.00052683 
1.8654 -5.6799 13.513 -0.40741 -0.74828 -0.52354 0 
0.19004 -5.1383 13.76 -0.24921 -0.67911 -0.69044 0.00018318 
0.45996 -5.1901 13.713 -0.24955 -0.67905 -0.69038 0.00014304 
0.75075 -5.2386 13.656 -0.26139 -0.68567 -0.67936 0.00033946 
1.0274 -5.3024 13.606 -0.33493 -0.71268 -0.61637 0.0012194 
1.2571 -5.3662 13.547 -0.38936 -0.72665 -0.56602 0.00079296 
-0.65946 -4.7998 13.798 -0.94209 -0.073511 -0.3272 0.15732 
-0.42922 -4.8755 13.725 -0.40142 -0.63793 -0.6572 0.034084 
-0.13639 -4.9298 13.673 -0.24915 -0.67855 -0.691 0 
0.13796 -4.9756 13.619 -0.24937 -0.67875 -0.69073 0 
0.43044 -5.0312 13.568 -0.257 -0.68183 -0.68488 0.00020344 
0.67705 -5.0795 13.526 -0.2887 -0.69188 -0.66178 0.00061615 
-1.2706 -4.5904 13.748 -0.93209 0.19065 -0.30799 0.10173 
-1.0379 -4.6138 13.687 -0.033955 -0.79803 -0.60165 0.027811 
-0.74577 -4.638 13.648 -0.08774 -0.75481 -0.65005 0.10085 
-0.46239 -4.7135 13.578 -0.36439 -0.52465 -0.76939 0.043158 
-0.20044 -4.7653 13.534 -0.26882 -0.65378 -0.70733 0.00065875 
-1.0025 -4.4726 13.536 -0.32362 -0.11281 -0.93944 0.11259 
-0.6782 -4.2652 13.704 0.94513 -0.021033 -0.32602 0.17493 
-0.57428 -4.3522 13.624 -0.86453 -0.29435 -0.40737 0.17921 
-1.2419 -3.9369 13.767 -0.46134 -0.7416 -0.48703 0 
-1.0345 -4.0007 13.668 -0.46516 -0.73832 -0.48837 0 
-0.79338 -4.1215 13.612 -0.79906 -0.52425 -0.29438 0.16764 
-0.64163 -4.2185 13.524 -0.60873 -0.14193 -0.78058 0.18147 
-1.5914 -3.6804 13.707 -0.4614 -0.74156 -0.48703 0 
-1.3576 -3.7797 13.637 -0.46134 -0.74167 -0.48693 0 
-1.134 -3.8634 13.553 -0.46525 -0.73762 -0.48934 4.3808e-05 
1.7222 -6.0312 14.075 -0.28929 -0.69938 -0.65359 0.0011289 
1.8823 -6.0428 14.01 -0.34801 -0.72522 -0.5941 0.001335 
0.85147 -5.7146 14.087 -0.24914 -0.67857 -0.691 0 
1.0782 -5.7514 14.042 -0.25135 -0.68033 -0.68846 1.4015e-05 
1.363 -5.8061 13.991 -0.27163 -0.68664 -0.67435 0.0002946 
1.6262 -5.8818 13.953 -0.31868 -0.71957 -0.61698 0.0005236 
1.8854 -5.9544 13.883 -0.36263 -0.73286 -0.57569 0.0016184 
-0.012714 -5.4034 14.093 -0.24918 -0.67867 -0.69088 3.3177e-05 
0.19779 -5.4462 14.06 -0.24918 -0.67878 -0.69077 7.3644e-05 
0.46743 -5.4915 14.007 -0.24922 -0.67879 -0.69074 0.00016082 
0.75725 -5.5451 13.955 -0.25074 -0.68043 -0.68859 0.00017838 
1.0381 -5.5919 13.9 -0.26624 -0.68858 -0.67451 0.00029105 
1.3162 -5.6472 13.849 -0.31054 -0.70818 -0.63407 0.0010543 
1.5263 -5.7103 13.806 -0.34924 -0.72045 -0.59916 0.00047518 
-0.68788 -5.1297 14.068 -0.24365 -0.6426 -0.72643 0.0010859 
-0.43541 -5.1771 14.024 -0.26196 -0.66739 -0.69712 0.00014011 
-0.14271 -5.2304 13.97 -0.24915 -0.67864 -0.69092 0 
0.13835 -5.2797 13.917 -0.24916 -0.67879 -0.69077 0 
0.4329 -5.3328 13.863 -0.24928 -0.67897 -0.69055 0.00018262 
0.67146 -5.3773 13.821 -0.25786 -0.6785 -0.68785 1.0587e-06 
-1.2616 -4.8639 14.014 -0.22095 -0.68024 -0.6989 0.0001282 
-1.0404 -4.9133 13.983 -0.018337 -0.63473 -0.77251 0.029187 
-0.75332 -4.9575 13.953 -0.24732 -0.53384 -0.80861 0.037787 
-0.46984 -5.0202 13.882 -0.28511 -0.64992 -0.70449 0.0010495 
-0.20553 -5.0672 13.833 -0.24918 -0.67862 -0.69092 5.9949e-05 
-1.3346 -4.6998 13.879 0.99254 -0.12116 0.013709 0.12175 
-1.0867 -4.7564 13.845 -0.071198 -0.6972 -0.71333 0.034656 
-0.71084 -4.6612 13.948 -0.98339 0.082124 -0.16188 0.10872 
-0.60296 -4.5454 14.006 -0.98867 -0.078933 -0.12764 0.10293 
-0.98854 -4.2581 14.016 -0.48502 -0.73106 -0.4799 0.00023693 
-0.76849 -4.3707 13.935 -0.5999 -0.6432 -0.47583 0.039199 
-0.54866 -4.4444 13.879 0.99289 -0.094422 -0.072448 0.072288 
-1.5552 -3.93 14.053 -0.46136 -0.74164 -0.48695 0 
-1.3304 -4.0121 13.965 -0.46132 -0.74155 -0.48713 0 
-1.0879 -4.1233 13.905 -0.47879 -0.73134 -0.4857 0.00022107 
-1.8957 -3.6859 14.004 -0.46134 -0.74168 -0.4869 2.181e-05 
-1.6601 -3.7851 13.932 -0.4614 -0.74155 -0.48706 0 
-1.4447 -3.8697 13.857 -0.46134 -0.7418 -0.48672 5.0191e-05 
0.85207 -6.0164 14.384 -0.24922 -0.67865 -0.69089 0 
1.0813 -6.0558 14.34 -0.2491 -0.67885 -0.69073 0 
1.3587 -6.1044 14.287 -0.25471 -0.67804 -0.68948 0 
1.6223 -6.0999 14.186 -0.28913 -0.69973 -0.65328 0.00088084 
1.8302 -6.1025 14.104 -0.27582 -0.72782 -0.62786 0.00080116 
-0.038958 -5.7008 14.395 -0.24914 -0.67868 -0.69088 0 
0.19648 -5.7441 14.353 -0.24916 -0.67875 -0.69081 2.6131e-05 
0.46342 -5.7939 14.305 -0.24918 -0.67874 -0.69081 7.3871e-05 
0.74653 -5.8458 14.254 -0.24923 -0.67895 -0.69059 3.7001e-05 
1.0337 -5.8943 14.198 -0.24983 -0.67877 -0.69055 0 
1.3203 -5.9495 14.149 -0.25877 -0.68194 -0.6841 0 
1.5525 -5.9966 14.109 -0.28915 -0.70004 -0.65294 0.0010967 
-0.68698 -5.4346 14.367 -0.24931 -0.67871 -0.69079 8.4841e-05 
-0.43479 -5.4795 14.32 -0.24916 -0.67855 -0.69101 1.5769e-05 
-0.1451 -5.5316 14.267 -0.24915 -0.67876 -0.69081 2.9482e-05 
0.13976 -5.5818 14.214 -0.24914 -0.67877 -0.69079 0 
0.43796 -5.6361 14.159 -0.24916 -0.67871 -0.69085 4.8962e-05 
0.67495 -5.6799 14.117 -0.24913 -0.67853 -0.69103 0 
-0.97292 -5.1796 14.22 -0.22775 -0.66794 -0.70851 7.4588e-05 
-0.75531 -5.2685 14.229 -0.24752 -0.66759 -0.70218 0.00033588 
-0.46702 -5.3211 14.176 -0.24915 -0.67875 -0.69081 0 
-0.21676 -5.3668 14.131 -0.24918 -0.6789 -0.69065 0.00016001 
-1.2087 -4.9747 14.104 -0.22853 -0.67447 -0.70204 0.000334 
-1.0645 -5.0564 14.132 -0.22875 -0.67003 -0.70621 0.00031527 
-0.93325 -4.5236 14.368 -0.49464 -0.73797 -0.45905 0.00040043 
-0.75009 -4.5844 14.257 -0.60644 -0.68461 -0.4044 0.027902 
-0.61871 -4.6038 14.116 -0.85958 0.12823 -0.49465 0.07749 
-1.2995 -4.2568 14.309 -0.46136 -0.74171 -0.48683 1.9213e-05 
-1.0565 -4.3641 14.242 -0.47985 -0.73464 -0.47964 0.0002559 
-0.84626 -4.4692 14.17 -0.6001 -0.67461 -0.42986 0.030706 
-1.8725 -3.9262 14.348 -0.46132 -0.74159 -0.48707 0 
-1.6416 -4.0168 14.267 -0.46136 -0.74151 -0.48714 0 
-1.3915 -4.1251 14.195 -0.46126 -0.74152 -0.48723 0 
-2.2016 -3.6922 14.303 -0.46132 -0.74179 -0.48675 1.6506e-05 
-1.9642 -3.7888 14.226 -0.46133 -0.74171 -0.48687 0 
-1.7423 -3.8698 14.139 -0.46136 -0.74155 -0.48708 0 
0.86036 -6.3138 14.673 -0.2492 -0.67865 -0.6909 0.00010208 
0.98033 -6.3216 14.637 -0.24923 -0.67841 -0.69111 0 
-0.039767 -6.0047 14.694 -0.24924 -0.6791 -0.69044 0.00028756 
0.18433 -6.0472 14.655 -0.24915 -0.67832 -0.69124 0 
0.46149 -6.0965 14.603 -0.24912 -0.67848 -0.69109 0 
0.7502 -6.1473 14.549 -0.24907 -0.67911 -0.69049 0 
1.0337 -6.2012 14.5 -0.24916 -0.67868 -0.69088 2.2622e-05 
1.27 -6.2263 14.439 -0.25024 -0.67836 -0.6908 0 
-0.41448 -5.7845 14.613 -0.24946 -0.67896 -0.6905 0.00021453 
-0.13762 -5.8349 14.562 -0.24914 -0.67884 -0.69073 0 
0.1369 -5.8828 14.51 -0.24916 -0.67872 -0.69084 1.0501e-05 
0.42785 -5.9389 14.461 -0.24916 -0.6786 -0.69096 0 
0.6634 -5.9837 14.42 -0.24924 -0.67885 -0.69069 0.00021796 
-0.69153 -5.5332 14.466 -0.24981 -0.67907 -0.69026 0.00015527 
-0.46915 -5.6239 14.475 -0.24916 -0.67866 -0.6909 2.4575e-06 
-0.22412 -5.6637 14.425 -0.24915 -0.67866 -0.6909 0 
-1.229 -4.5238 14.648 -0.46133 -0.74174 -0.48683 0 
-1.0231 -4.5996 14.569 -0.46148 -0.74172 -0.48672 7.8399e-05 
-0.83689 -4.688 14.527 -0.47468 -0.74452 -0.46944 5.4175e-05 
-1.5992 -4.2607 14.599 -0.46126 -0.74149 -0.48727 0 
-1.3585 -4.3726 14.541 -0.46132 -0.74159 -0.48706 0 
-1.1319 -4.4619 14.462 -0.46821 -0.74388 -0.47688 0.00026548 
-1.9289 -4.0209 14.546 -0.46134 -0.74164 -0.48697 0 
-1.7014 -4.1366 14.506 -0.46126 -0.74138 -0.48743 0 
-1.4939 -4.196 14.4 -0.46143 -0.7417 -0.48679 4.4303e-05 
-2.1977 -3.7991 14.462 -0.46147 -0.74172 -0.48672 0 
-2.0571 -3.8669 14.433 -0.46121 -0.74137 -0.48751 0 
-0.013521 -6.3145 14.989 -0.24921 -0.67876 -0.69078 3.0992e-05 
0.17665 -6.3481 14.953 -0.24915 -0.67841 -0.69114 0 
0.44325 -6.3862 14.894 -0.24921 -0.67819 -0.69134 0 
0.71504 -6.3632 14.774 -0.24914 -0.67873 -0.69084 0 
-0.30731 -6.026 14.811 -0.24912 -0.67863 -0.69094 0 
-0.12393 -6.1283 14.846 -0.24928 -0.67877 -0.69075 9.6904e-05 
0.136 -6.1857 14.808 -0.24915 -0.67866 -0.69091 0 
0.43001 -6.2403 14.756 -0.24914 -0.67875 -0.69082 0 
0.63746 -6.2817 14.722 -0.24909 -0.67892 -0.69067 0 
-0.36164 -5.9426 14.749 -0.24911 -0.67854 -0.69103 1.2889e-05 
-0.2192 -5.9713 14.726 -0.24927 -0.67903 -0.69049 0.00015124 
-1.006 -4.8352 14.912 -0.46126 -0.74133 -0.48751 0 
-0.89216 -4.807 14.761 -0.46133 -0.74152 -0.48716 0 
-1.3319 -4.6009 14.863 -0.46143 -0.74173 -0.48674 3.1247e-05 
-1.0858 -4.7201 14.812 -0.46133 -0.7415 -0.48718 0 
-0.86223 -4.7887 14.705 -0.473 -0.741 -0.47665 2.8227e-05 
-1.8217 -4.2152 14.74 -0.46132 -0.74165 -0.48696 0 
-1.6184 -4.3742 14.79 -0.46134 -0.74164 -0.48697 0 
-1.4428 -4.4659 14.763 -0.46143 -0.74177 -0.48669 6.0551e-05 
-1.844 -4.1789 14.706 -0.46132 -0.74165 -0.48696 0 
3 0 10 9
3 1 5 23
3 4 5 23
3 12 23 1
3 13 12 1
3 2 13 1
3 11 22 4
3 11 23 4
3 11 23 12
3 75 11 12
3 68 75 12
3 76 68 12
3 69 76 12
3 70 69 12
3 7 70 12
3 7 13 12
3 8 7 13
3 14 8 13
3 3 14 13
3 3 2 13
3 86 21 22
3 87 86 22
3 75 87 22
3 75 11 22
3 86 87 75
3 74 86 75
3 164 74 75
3 153 164 75
3 142 153 75
3 142 68 75
3 206 142 68
3 143 206 68
3 138 143 68
3 144 138 68
3 69 144 68
3 69 76 68
3 144 70 69
3 8 7 70
3 85 20 21
3 73 85 21
3 73 86 21
3 152 73 86
3 152 74 86
3 141 152 74
3 141 164 74
3 141 153 164
3 205 141 153
3 205 142 153
3 197 205 142
3 197 206 142
3 250 197 206
3 198 250 206
3 137 198 206
3 138 137 206
3 138 143 206
3 98 34 20
3 98 85 20
3 186 98 85
3 84 186 85
3 174 84 85
3 236 174 85
3 163 236 85
3 237 163 85
3 237 73 85
3 151 237 73
3 215 151 73
3 215 152 73
3 204 215 152
3 204 141 152
3 204 205 141
3 269 204 205
3 258 269 205
3 248 258 205
3 249 248 205
3 249 197 205
3 245 249 197
3 245 250 197
3 137 198 250
3 33 98 34
3 97 33 98
3 97 186 98
3 244 97 186
3 173 244 186
3 173 84 186
3 162 173 84
3 150 162 84
3 150 174 84
3 150 236 174
3 277 150 236
3 225 277 236
3 225 163 236
3 214 225 163
3 151 214 163
3 151 237 163
3 203 214 151
3 203 215 151
3 258 203 215
3 258 269 204
3 258 204 215
3 257 203 258
3 300 257 258
3 247 300 258
3 295 247 258
3 295 248 258
3 291 295 248
3 296 291 248
3 245 296 248
3 245 249 248
3 291 296 245
3 292 291 245
3 318 292 245
3 96 32 33
3 96 97 33
3 96 244 97
3 184 96 244
3 243 184 244
3 234 243 244
3 285 234 244
3 235 285 244
3 235 173 244
3 235 162 173
3 285 235 162
3 212 285 162
3 213 212 162
3 213 150 162
3 277 214 225
3 266 277 214
3 256 266 214
3 257 256 214
3 257 203 214
3 299 256 257
3 299 300 257
3 326 299 300
3 293 326 300
3 321 293 300
3 294 321 300
3 295 294 300
3 295 247 300
3 321 294 295
3 322 321 295
3 317 322 295
3 317 291 295
3 314 317 291
3 318 314 291
3 318 292 291
3 95 108 32
3 95 96 32
3 95 184 96
3 242 95 184
3 242 243 184
3 233 242 243
3 222 233 243
3 222 234 243
3 284 222 234
3 275 284 234
3 275 285 234
3 275 212 285
3 265 277 266
3 303 265 266
3 255 303 266
3 299 255 266
3 299 256 266
3 303 255 299
3 298 303 299
3 325 298 299
3 325 326 299
3 319 325 326
3 350 319 326
3 320 350 326
3 321 320 326
3 321 293 326
3 350 320 321
3 315 350 321
3 345 315 321
3 316 345 321
3 317 316 321
3 317 322 321
3 345 316 317
3 346 345 317
3 342 346 317
3 342 314 317
3 182 107 108
3 182 95 108
3 182 242 95
3 283 233 222
3 282 283 222
3 221 282 222
3 273 221 222
3 274 273 222
3 264 274 222
3 265 264 222
3 265 303 264
3 275 265 222
3 275 284 222
3 302 264 303
3 330 302 303
3 297 330 303
3 325 297 303
3 325 298 303
3 330 297 325
3 324 330 325
3 354 324 325
3 348 354 325
3 349 348 325
3 349 319 325
3 343 349 319
3 343 350 319
3 378 343 350
3 344 378 350
3 345 344 350
3 345 315 350
3 378 344 345
3 372 378 345
3 379 372 345
3 373 379 345
3 341 373 345
3 342 341 345
3 342 346 345
3 374 341 342
3 181 182 107
3 106 181 107
3 240 181 182
3 231 240 182
3 232 231 182
3 170 232 182
3 170 242 182
3 282 233 283
3 289 290 282
3 289 221 282
3 231 289 221
3 231 232 289
3 281 231 221
3 272 281 221
3 272 273 221
3 305 272 273
3 306 305 273
3 301 306 273
3 264 301 273
3 264 274 273
3 301 302 264
3 329 301 302
3 329 330 302
3 360 329 330
3 323 360 330
3 354 323 330
3 354 324 330
3 360 323 354
3 353 360 354
3 390 353 354
3 347 390 354
3 383 347 354
3 383 348 354
3 384 383 348
3 384 349 348
3 377 384 349
3 377 343 349
3 418 377 343
3 419 418 343
3 419 378 343
3 411 419 378
3 411 372 378
3 406 411 372
3 407 406 372
3 412 407 372
3 373 412 372
3 373 379 372
3 407 412 373
3 374 407 373
3 374 341 373
3 239 180 181
3 239 240 181
3 180 181 106
3 288 239 240
3 230 288 240
3 281 230 240
3 281 231 240
3 288 230 281
3 280 288 281
3 309 280 281
3 310 309 281
3 305 310 281
3 305 272 281
3 309 310 305
3 304 309 305
3 333 304 305
3 327 333 305
3 334 327 305
3 328 334 305
3 329 328 305
3 301 329 305
3 301 306 305
3 359 328 329
3 359 360 329
3 351 359 360
3 352 351 360
3 389 352 360
3 390 389 360
3 390 353 360
3 381 389 390
3 425 381 390
3 382 425 390
3 383 382 390
3 383 347 390
3 425 382 383
3 375 425 383
3 417 375 383
3 376 417 383
3 418 376 383
3 377 418 383
3 377 384 383
3 417 376 418
3 408 417 418
3 409 408 418
3 453 409 418
3 454 453 418
3 410 454 418
3 455 410 418
3 411 455 418
3 411 419 418
3 447 455 411
3 447 406 411
3 448 447 406
3 448 407 406
3 238 239 180
3 287 238 239
3 287 288 239
3 313 287 288
3 279 313 288
3 309 279 288
3 309 280 288
3 313 279 309
3 308 313 309
3 337 308 309
3 332 337 309
3 333 332 309
3 333 304 309
3 364 332 333
3 357 364 333
3 358 357 333
3 358 327 333
3 351 358 327
3 359 351 327
3 328 359 327
3 328 334 327
3 357 358 351
3 395 357 351
3 387 395 351
3 388 387 351
3 380 388 351
3 381 380 351
3 389 381 351
3 389 352 351
3 423 380 381
3 414 423 381
3 424 414 381
3 424 425 381
3 415 424 425
3 461 415 425
3 416 461 425
3 417 416 425
3 417 375 425
3 461 416 417
3 461 408 417
3 451 461 408
3 452 451 408
3 444 452 408
3 453 444 408
3 453 409 408
3 486 444 453
3 445 486 453
3 487 445 453
3 446 487 453
3 446 454 453
3 447 446 454
3 455 447 454
3 455 410 454
3 286 287 238
3 312 286 287
3 312 313 287
3 340 312 313
3 307 340 313
3 337 307 313
3 337 308 313
3 340 307 337
3 336 340 337
3 367 336 337
3 368 367 337
3 331 368 337
3 364 331 337
3 364 332 337
3 367 331 364
3 367 368 331
3 363 367 364
3 356 363 364
3 394 356 364
3 395 394 364
3 395 357 364
3 386 394 395
3 429 386 395
3 430 429 395
3 430 387 395
3 422 430 387
3 423 422 387
3 380 423 387
3 380 388 387
3 465 422 423
3 413 465 423
3 459 413 423
3 459 414 423
3 450 459 414
3 451 450 414
3 451 461 460
3 460 451 414
3 415 460 414
3 415 424 414
3 460 461 415
3 490 450 451
3 483 490 451
3 491 483 451
3 492 491 451
3 444 492 451
3 444 452 451
3 484 492 444
3 485 484 444
3 480 485 444
3 481 480 444
3 481 486 444
3 487 481 486
3 487 445 486
3 311 312 286
3 339 311 312
3 339 340 312
3 371 339 340
3 335 371 340
3 367 335 340
3 367 336 340
3 371 335 367
3 366 371 367
3 401 366 367
3 402 401 367
3 398 402 367
3 356 398 367
3 356 363 367
3 393 398 356
3 393 394 356
3 429 393 394
3 429 386 394
3 428 393 429
3 420 428 429
3 463 420 429
3 421 463 429
3 465 421 429
3 422 465 429
3 422 430 429
3 464 421 465
3 457 464 465
3 494 457 465
3 495 494 465
3 458 495 465
3 459 458 465
3 459 413 465
3 495 458 459
3 449 495 459
3 490 449 459
3 490 450 459
3 495 449 490
3 489 495 490
3 517 489 490
3 482 517 490
3 513 482 490
3 513 483 490
3 508 513 483
3 509 508 483
3 514 509 483
3 515 514 483
3 484 515 483
3 484 492 491
3 484 491 483
3 480 515 484
3 480 485 484
3 510 515 480
3 510 480 481
3 338 339 311
3 370 338 339
3 370 371 339
3 405 370 371
3 365 405 371
3 401 365 371
3 401 366 371
3 405 365 401
3 400 405 401
3 440 400 401
3 435 440 401
3 436 435 401
3 437 436 401
3 398 437 401
3 398 402 401
3 469 393 428
3 432 469 428
3 427 432 428
3 466 427 428
3 467 466 428
3 462 467 428
3 463 462 428
3 463 420 428
3 493 462 463
3 456 493 463
3 494 456 463
3 457 494 463
3 464 457 463
3 464 421 463
3 493 456 494
3 517 488 494
3 489 517 494
3 489 495 494
3 516 488 517
3 511 516 517
3 512 511 517
3 512 482 517
3 507 512 482
3 507 513 482
3 507 508 513
3 515 510 509
3 515 514 509
3 369 370 338
3 404 369 370
3 404 405 370
3 443 404 405
3 399 443 405
3 440 399 405
3 440 400 405
3 443 399 440
3 439 443 440
3 476 439 440
3 471 476 440
3 472 471 440
3 472 435 440
3 468 472 435
3 473 468 435
3 473 436 435
3 432 393 469
3 392 393 432
3 426 432 427
3 426 466 427
3 462 467 466
3 403 404 369
3 442 403 404
3 442 443 404
3 479 442 443
3 438 479 443
3 476 438 443
3 476 439 443
3 479 438 476
3 475 479 476
3 503 475 476
3 504 503 476
3 500 504 476
3 500 471 476
3 496 500 471
3 501 496 471
3 501 472 471
3 497 501 472
3 497 468 472
3 498 497 468
3 426 432 392
3 441 442 403
3 478 441 442
3 478 479 442
3 506 478 479
3 474 506 479
3 503 474 479
3 503 475 479
3 506 474 503
3 502 506 503
3 526 502 503
3 523 526 503
3 524 523 503
3 499 524 503
3 500 499 503
3 500 504 503
3 524 499 500
3 525 524 500
3 520 525 500
3 520 496 500
3 521 520 496
3 497 521 496
3 497 501 496
3 518 521 497
3 519 518 497
3 522 519 497
3 522 498 497
3 505 477 441
3 505 478 441
3 505 506 478
3 505 506 502
3 520 525 524
3 518 521 520
3 15 27 28
3 81 15 28
3 16 81 28
3 80 26 27
3 80 15 27
3 80 81 15
3 71 80 81
3 148 71 81
3 72 148 81
3 92 25 26
3 79 92 26
3 79 80 26
3 158 79 80
3 147 158 80
3 148 147 80
3 148 71 80
3 211 147 148
3 201 211 148
3 202 201 148
3 139 202 148
3 140 139 148
3 149 140 148
3 149 72 148
3 24 37 25
3 90 24 25
3 91 90 25
3 78 91 25
3 78 92 25
3 78 79 92
3 157 78 79
3 146 157 79
3 146 158 79
3 210 146 158
3 211 210 158
3 211 147 158
3 199 210 211
3 200 199 211
3 254 200 211
3 254 201 211
3 140 139 202
3 36 24 37
3 36 90 24
3 103 36 90
3 35 103 90
3 167 35 90
3 155 167 90
3 168 155 90
3 156 168 90
3 77 156 90
3 78 77 90
3 78 91 90
3 156 77 78
3 145 156 78
3 145 157 78
3 210 145 157
3 210 146 157
3 220 145 210
3 209 220 210
3 263 209 210
3 263 199 210
3 251 263 199
3 252 251 199
3 246 252 199
3 253 246 199
3 254 253 199
3 254 200 199
3 246 253 254
3 35 36 103
3 102 167 35
3 219 155 167
3 208 219 155
3 220 208 155
3 145 220 155
3 156 145 155
3 156 168 155
3 262 208 220
3 263 262 220
3 263 209 220
3 262 251 263
3 261 262 251
3 262 207 219
3 262 208 219
3 207 261 262
3 17 82 18
3 31 19 18
3 30 31 18
3 29 30 18
3 29 82 18
3 93 29 82
3 19 18 17
3 94 83 19
3 94 31 19
3 105 94 31
3 40 105 31
3 39 40 31
3 39 30 31
3 38 39 30
3 38 29 30
3 104 38 29
3 104 93 29
3 169 159 83
3 169 94 83
3 179 169 94
3 179 105 94
3 188 179 105
3 117 188 105
3 43 117 105
3 43 40 105
3 42 43 40
3 42 39 40
3 41 42 39
3 41 38 39
3 116 41 38
3 116 104 38
3 122 191 188
3 46 122 188
3 46 117 188
3 46 43 117
3 45 46 43
3 45 42 43
3 44 45 42
3 44 41 42
3 121 44 41
3 121 116 41
3 124 192 191
3 49 124 191
3 49 122 191
3 46 49 122
3 48 49 46
3 48 45 46
3 47 48 45
3 47 44 45
3 123 47 44
3 123 121 44
3 126 193 192
3 52 126 192
3 52 124 192
3 49 52 124
3 51 52 49
3 51 48 49
3 50 51 48
3 50 47 48
3 125 50 47
3 125 123 47
3 128 194 193
3 55 128 193
3 55 126 193
3 55 52 126
3 54 55 52
3 54 51 52
3 53 54 51
3 53 50 51
3 127 53 50
3 127 125 50
3 130 195 194
3 58 130 194
3 58 128 194
3 58 55 128
3 57 58 55
3 57 54 55
3 56 57 54
3 56 53 54
3 129 56 53
3 129 127 53
3 132 196 195
3 61 132 195
3 61 130 195
3 58 61 130
3 60 61 58
3 60 57 58
3 59 60 57
3 59 56 57
3 131 59 56
3 131 129 56
3 134 132 196
3 64 134 132
3 63 64 132
3 63 61 132
3 60 63 61
3 62 63 60
3 62 59 60
3 133 62 59
3 133 131 59
3 67 136 134
3 66 67 134
3 66 64 134
3 65 66 64
3 65 63 64
3 65 62 63
3 135 65 62
3 135 133 62
3 66 67 136
3 135 65 66
3 88 178 101
3 177 100 101
3 177 178 101
3 165 177 178
3 228 165 178
3 229 228 178
3 166 229 178
3 166 88 178
3 154 166 88
3 176 177 100
3 227 176 177
3 228 227 177
3 228 165 177
3 216 227 228
3 270 216 228
3 217 270 228
3 271 217 228
3 218 271 228
3 218 229 228
3 154 218 229
3 154 166 229
3 187 100 176
3 175 187 176
3 226 175 176
3 226 227 176
3 278 226 227
3 278 216 227
3 271 260 270
3 271 217 270
3 109 189 118
3 190 189 118
3 119 190 118
3 190 119 118
3 190 118 109
3 110 120 111
3 160 161 172
3 171 160 172
3 391 431 396
3 433 434 470
